<svg xmlns="http://www.w3.org/2000/svg" xmlns:xlink="http://www.w3.org/1999/xlink" width="1123" zoomAndPan="magnify" viewBox="0 0 842.25 595.499986" height="794" preserveAspectRatio="xMidYMid meet" version="1.0"><defs><g/><clipPath id="2462e5841d"><rect x="0" width="181" y="0" height="63"/></clipPath></defs><g transform="matrix(1, 0, 0, 1, 533, 120)"><g clip-path="url(#2462e5841d)"><g fill="#113c60" fill-opacity="1"><g transform="translate(1.422956, 48.39291)"><g><path d="M 16.1875 0 L 13.765625 -10.328125 L 6.15625 -10.328125 L 3.734375 0 L 0 0 L 7.75 -32.109375 L 12 -32.109375 L 19.90625 0 Z M 13.109375 -13.546875 L 10.65625 -24.453125 C 10.550781 -24.992188 10.453125 -25.519531 10.359375 -26.03125 C 10.265625 -26.550781 10.175781 -27.054688 10.09375 -27.546875 C 10.007812 -28.046875 9.929688 -28.53125 9.859375 -29 C 9.816406 -28.53125 9.757812 -28.046875 9.6875 -27.546875 C 9.613281 -27.046875 9.523438 -26.539062 9.421875 -26.03125 C 9.316406 -25.53125 9.207031 -25.015625 9.09375 -24.484375 L 6.703125 -13.546875 Z M 13.109375 -13.546875 "/></g></g></g><g fill="#113c60" fill-opacity="1"><g transform="translate(22.35443, 48.39291)"><g><path d="M 3.3125 0 L 3.3125 -32.109375 L 20.34375 -32.109375 L 20.34375 0 L 16.84375 0 L 16.84375 -28.953125 L 6.8125 -28.953125 L 6.8125 0 Z M 3.3125 0 "/></g></g></g><g fill="#113c60" fill-opacity="1"><g transform="translate(46.975415, 48.39291)"><g><path d="M 16.1875 0 L 13.765625 -10.328125 L 6.15625 -10.328125 L 3.734375 0 L 0 0 L 7.75 -32.109375 L 12 -32.109375 L 19.90625 0 Z M 13.109375 -13.546875 L 10.65625 -24.453125 C 10.550781 -24.992188 10.453125 -25.519531 10.359375 -26.03125 C 10.265625 -26.550781 10.175781 -27.054688 10.09375 -27.546875 C 10.007812 -28.046875 9.929688 -28.53125 9.859375 -29 C 9.816406 -28.53125 9.757812 -28.046875 9.6875 -27.546875 C 9.613281 -27.046875 9.523438 -26.539062 9.421875 -26.03125 C 9.316406 -25.53125 9.207031 -25.015625 9.09375 -24.484375 L 6.703125 -13.546875 Z M 13.109375 -13.546875 "/></g></g></g><g fill="#113c60" fill-opacity="1"><g transform="translate(67.906888, 48.39291)"><g><path d="M 22.015625 0 L 17.765625 0 L 6.5625 -26.578125 L 6.390625 -26.578125 C 6.453125 -25.796875 6.5 -25.039062 6.53125 -24.3125 C 6.570312 -23.59375 6.597656 -22.894531 6.609375 -22.21875 C 6.628906 -21.550781 6.640625 -20.894531 6.640625 -20.25 L 6.640625 0 L 3.3125 0 L 3.3125 -32.109375 L 7.53125 -32.109375 L 18.765625 -5.9375 L 18.890625 -5.9375 C 18.847656 -6.789062 18.804688 -7.597656 18.765625 -8.359375 C 18.734375 -9.128906 18.707031 -9.847656 18.6875 -10.515625 C 18.675781 -11.179688 18.671875 -11.789062 18.671875 -12.34375 L 18.671875 -32.109375 L 22.015625 -32.109375 Z M 22.015625 0 "/></g></g></g><g fill="#113c60" fill-opacity="1"><g transform="translate(94.196939, 48.39291)"><g><path d="M 10.171875 0 L 6.671875 0 L 6.671875 -28.953125 L 0.421875 -28.953125 L 0.421875 -32.109375 L 16.453125 -32.109375 L 16.453125 -28.953125 L 10.171875 -28.953125 Z M 10.171875 0 "/></g></g></g><g fill="#113c60" fill-opacity="1"><g transform="translate(112.141664, 48.39291)"><g><path d="M 20.46875 0 L 16.984375 0 L 16.984375 -15.203125 L 6.8125 -15.203125 L 6.8125 0 L 3.3125 0 L 3.3125 -32.109375 L 6.8125 -32.109375 L 6.8125 -18.390625 L 16.984375 -18.390625 L 16.984375 -32.109375 L 20.46875 -32.109375 Z M 20.46875 0 "/></g></g></g><g fill="#113c60" fill-opacity="1"><g transform="translate(136.916379, 48.39291)"><g><path d="M 1.34375 0 L 1.34375 -2.90625 L 8.78125 -16.734375 L 1.671875 -29.296875 L 1.671875 -32.109375 L 16.0625 -32.109375 L 16.0625 -29 L 8.703125 -29 C 8.316406 -29 7.941406 -29 7.578125 -29 C 7.222656 -29.007812 6.882812 -29.023438 6.5625 -29.046875 C 6.238281 -29.066406 5.914062 -29.09375 5.59375 -29.125 L 12.65625 -16.734375 L 5.15625 -2.984375 C 5.695312 -3.046875 6.234375 -3.09375 6.765625 -3.125 C 7.296875 -3.164062 7.835938 -3.1875 8.390625 -3.1875 L 16.796875 -3.1875 L 16.796875 0 Z M 1.34375 0 "/></g></g></g><g fill="#113c60" fill-opacity="1"><g transform="translate(155.849367, 48.39291)"><g><path d="M 20.46875 0 L 16.984375 0 L 16.984375 -15.203125 L 6.8125 -15.203125 L 6.8125 0 L 3.3125 0 L 3.3125 -32.109375 L 6.8125 -32.109375 L 6.8125 -18.390625 L 16.984375 -18.390625 L 16.984375 -32.109375 L 20.46875 -32.109375 Z M 20.46875 0 "/></g></g></g></g></g></svg>