<svg xmlns="http://www.w3.org/2000/svg" xmlns:xlink="http://www.w3.org/1999/xlink" width="1123" zoomAndPan="magnify" viewBox="0 0 842.25 595.499986" height="794" preserveAspectRatio="xMidYMid meet" version="1.0"><defs><filter x="0%" y="0%" width="100%" height="100%" id="76e9638d48"><feColorMatrix values="0 0 0 0 1 0 0 0 0 1 0 0 0 0 1 0 0 0 1 0" color-interpolation-filters="sRGB"/></filter><clipPath id="eabed3db05"><path d="M 0.46875 0.683594 L 416.257812 0.683594 L 416.257812 569.9375 L 0.46875 569.9375 Z M 0.46875 0.683594 " clip-rule="nonzero"/></clipPath><mask id="57c41a1cd3"><g filter="url(#76e9638d48)"><rect x="-197.295" width="1212.84" fill="#000000" y="-144.009997" height="857.51998" fill-opacity="0.4"/></g></mask><clipPath id="732cdd14dc"><path d="M 20.0625 20.394531 L 397.121094 20.394531 L 397.121094 550.636719 L 20.0625 550.636719 Z M 20.0625 20.394531 " clip-rule="nonzero"/></clipPath><clipPath id="65cc798517"><path d="M 61.289062 20.394531 L 355.894531 20.394531 C 366.828125 20.394531 377.3125 24.738281 385.046875 32.472656 C 392.777344 40.203125 397.121094 50.691406 397.121094 61.625 L 397.121094 509.03125 C 397.121094 519.964844 392.777344 530.453125 385.046875 538.183594 C 377.3125 545.914062 366.828125 550.257812 355.894531 550.257812 L 61.289062 550.257812 C 50.355469 550.257812 39.867188 545.914062 32.136719 538.183594 C 24.40625 530.453125 20.0625 519.964844 20.0625 509.03125 L 20.0625 61.625 C 20.0625 50.691406 24.40625 40.203125 32.136719 32.472656 C 39.867188 24.738281 50.355469 20.394531 61.289062 20.394531 Z M 61.289062 20.394531 " clip-rule="nonzero"/></clipPath><clipPath id="219309fee2"><path d="M 0.0625 0.394531 L 377.121094 0.394531 L 377.121094 530.273438 L 0.0625 530.273438 Z M 0.0625 0.394531 " clip-rule="nonzero"/></clipPath><clipPath id="78e0f80d33"><path d="M 41.289062 0.394531 L 335.894531 0.394531 C 346.828125 0.394531 357.3125 4.738281 365.046875 12.472656 C 372.777344 20.203125 377.121094 30.691406 377.121094 41.625 L 377.121094 489.03125 C 377.121094 499.964844 372.777344 510.453125 365.046875 518.183594 C 357.3125 525.914062 346.828125 530.257812 335.894531 530.257812 L 41.289062 530.257812 C 30.355469 530.257812 19.867188 525.914062 12.136719 518.183594 C 4.40625 510.453125 0.0625 499.964844 0.0625 489.03125 L 0.0625 41.625 C 0.0625 30.691406 4.40625 20.203125 12.136719 12.472656 C 19.867188 4.738281 30.355469 0.394531 41.289062 0.394531 Z M 41.289062 0.394531 " clip-rule="nonzero"/></clipPath><clipPath id="976eee7bce"><rect x="0" width="378" y="0" height="531"/></clipPath><clipPath id="f8935cf32a"><path d="M 20.0625 20.398438 L 397.117188 20.398438 L 397.117188 550.285156 L 20.0625 550.285156 Z M 20.0625 20.398438 " clip-rule="nonzero"/></clipPath><clipPath id="34f2506d7e"><path d="M 61.289062 20.398438 L 355.890625 20.398438 C 366.824219 20.398438 377.308594 24.742188 385.042969 32.472656 C 392.773438 40.203125 397.117188 50.691406 397.117188 61.625 L 397.117188 509.027344 C 397.117188 519.960938 392.773438 530.445312 385.042969 538.179688 C 377.308594 545.910156 366.824219 550.253906 355.890625 550.253906 L 61.289062 550.253906 C 50.355469 550.253906 39.867188 545.910156 32.136719 538.179688 C 24.40625 530.445312 20.0625 519.960938 20.0625 509.027344 L 20.0625 61.625 C 20.0625 50.691406 24.40625 40.203125 32.136719 32.472656 C 39.867188 24.742188 50.355469 20.398438 61.289062 20.398438 Z M 61.289062 20.398438 " clip-rule="nonzero"/></clipPath><clipPath id="86bfe573a2"><rect x="0" width="417" y="0" height="570"/></clipPath><clipPath id="107e40ad06"><rect x="0" width="417" y="0" height="570"/></clipPath></defs><g transform="matrix(1, 0, 0, 1, 12, 13)"><g clip-path="url(#107e40ad06)"><g clip-path="url(#eabed3db05)"><g mask="url(#57c41a1cd3)"><g><g clip-path="url(#86bfe573a2)"><g clip-path="url(#732cdd14dc)"><g clip-path="url(#65cc798517)"><g transform="matrix(1, 0, 0, 1, 20, 20)"><g clip-path="url(#976eee7bce)"><g clip-path="url(#219309fee2)"><g clip-path="url(#78e0f80d33)"><path fill="#fff6ef" d="M 0.0625 0.394531 L 377.121094 0.394531 L 377.121094 530.636719 L 0.0625 530.636719 Z M 0.0625 0.394531 " fill-opacity="1" fill-rule="nonzero"/></g></g></g></g></g></g><g clip-path="url(#f8935cf32a)"><g clip-path="url(#34f2506d7e)"><path stroke-linecap="butt" transform="matrix(0.749615, 0, 0, 0.749615, 20.0608, 20.397184)" fill="none" stroke-linejoin="miter" d="M 54.999237 0.00167277 L 448.002969 0.00167277 C 462.588578 0.00167277 476.574921 5.796313 486.892715 16.108896 C 497.205298 26.421479 502.999938 40.413033 502.999938 54.998642 L 502.999938 651.841338 C 502.999938 666.426947 497.205298 680.41329 486.892715 690.731084 C 476.574921 701.043667 462.588578 706.838307 448.002969 706.838307 L 54.999237 706.838307 C 40.413628 706.838307 26.422074 701.043667 16.109491 690.731084 C 5.796908 680.41329 0.00226796 666.426947 0.00226796 651.841338 L 0.00226796 54.998642 C 0.00226796 40.413033 5.796908 26.421479 16.109491 16.108896 C 26.422074 5.796313 40.413628 0.00167277 54.999237 0.00167277 Z M 54.999237 0.00167277 " stroke="#a6a6a6" stroke-width="12" stroke-opacity="1" stroke-miterlimit="4"/></g></g></g></g></g></g></g></g></svg>