<svg xmlns="http://www.w3.org/2000/svg" xmlns:xlink="http://www.w3.org/1999/xlink" width="1123" zoomAndPan="magnify" viewBox="0 0 842.25 595.499986" height="794" preserveAspectRatio="xMidYMid meet" version="1.0"><defs><g/><clipPath id="6b463ef16d"><rect x="0" width="154" y="0" height="63"/></clipPath></defs><g transform="matrix(1, 0, 0, 1, 149, 120)"><g clip-path="url(#6b463ef16d)"><g fill="#113c60" fill-opacity="1"><g transform="translate(1.132748, 48.39291)"><g><path d="M 15.953125 0 L 3.3125 0 L 3.3125 -32.109375 L 15.953125 -32.109375 L 15.953125 -29 L 6.8125 -29 L 6.8125 -18.34375 L 15.390625 -18.34375 L 15.390625 -15.203125 L 6.8125 -15.203125 L 6.8125 -3.1875 L 15.953125 -3.1875 Z M 15.953125 0 "/></g></g></g><g fill="#113c60" fill-opacity="1"><g transform="translate(20.13162, 48.39291)"><g><path d="M 9.078125 -32.109375 C 12.222656 -32.109375 14.546875 -31.347656 16.046875 -29.828125 C 17.546875 -28.304688 18.296875 -25.9375 18.296875 -22.71875 C 18.296875 -21.0625 18.097656 -19.601562 17.703125 -18.34375 C 17.316406 -17.09375 16.738281 -16.039062 15.96875 -15.1875 C 15.207031 -14.34375 14.242188 -13.703125 13.078125 -13.265625 C 11.910156 -12.835938 10.546875 -12.625 8.984375 -12.625 L 6.8125 -12.625 L 6.8125 0 L 3.3125 0 L 3.3125 -32.109375 Z M 8.9375 -29.03125 L 6.8125 -29.03125 L 6.8125 -15.734375 L 8.671875 -15.734375 C 10.097656 -15.734375 11.253906 -15.960938 12.140625 -16.421875 C 13.023438 -16.890625 13.675781 -17.632812 14.09375 -18.65625 C 14.507812 -19.6875 14.71875 -21.023438 14.71875 -22.671875 C 14.71875 -24.941406 14.25 -26.566406 13.3125 -27.546875 C 12.375 -28.535156 10.914062 -29.03125 8.9375 -29.03125 Z M 8.9375 -29.03125 "/></g></g></g><g fill="#113c60" fill-opacity="1"><g transform="translate(40.843479, 48.39291)"><g><path d="M 12.515625 -29.390625 C 11.109375 -29.390625 9.914062 -28.957031 8.9375 -28.09375 C 7.96875 -27.238281 7.226562 -25.953125 6.71875 -24.234375 C 6.21875 -22.515625 5.96875 -20.34375 5.96875 -17.71875 C 5.96875 -15.5 6.144531 -13.460938 6.5 -11.609375 C 6.851562 -9.753906 7.375 -8.09375 8.0625 -6.625 C 8.757812 -5.15625 9.640625 -3.867188 10.703125 -2.765625 L 10.703125 0 L 1.28125 0 L 1.28125 -3.1875 L 7.1875 -3.1875 C 6.195312 -4.164062 5.335938 -5.359375 4.609375 -6.765625 C 3.890625 -8.171875 3.332031 -9.804688 2.9375 -11.671875 C 2.539062 -13.535156 2.34375 -15.640625 2.34375 -17.984375 C 2.34375 -21.265625 2.738281 -23.984375 3.53125 -26.140625 C 4.320312 -28.296875 5.472656 -29.90625 6.984375 -30.96875 C 8.503906 -32.039062 10.34375 -32.578125 12.5 -32.578125 C 14.65625 -32.578125 16.46875 -32.03125 17.9375 -30.9375 C 19.414062 -29.84375 20.535156 -28.21875 21.296875 -26.0625 C 22.066406 -23.90625 22.453125 -21.222656 22.453125 -18.015625 C 22.453125 -15.609375 22.253906 -13.46875 21.859375 -11.59375 C 21.472656 -9.71875 20.921875 -8.082031 20.203125 -6.6875 C 19.484375 -5.300781 18.628906 -4.132812 17.640625 -3.1875 L 23.5625 -3.1875 L 23.5625 0 L 14.09375 0 L 14.09375 -2.765625 C 15.257812 -3.890625 16.1875 -5.1875 16.875 -6.65625 C 17.570312 -8.125 18.078125 -9.773438 18.390625 -11.609375 C 18.710938 -13.441406 18.875 -15.488281 18.875 -17.75 C 18.875 -20.269531 18.640625 -22.390625 18.171875 -24.109375 C 17.710938 -25.835938 17.015625 -27.148438 16.078125 -28.046875 C 15.140625 -28.941406 13.953125 -29.390625 12.515625 -29.390625 Z M 12.515625 -29.390625 "/></g></g></g><g fill="#113c60" fill-opacity="1"><g transform="translate(66.760187, 48.39291)"><g><path d="M 10.171875 0 L 6.671875 0 L 6.671875 -28.953125 L 0.421875 -28.953125 L 0.421875 -32.109375 L 16.453125 -32.109375 L 16.453125 -28.953125 L 10.171875 -28.953125 Z M 10.171875 0 "/></g></g></g><g fill="#113c60" fill-opacity="1"><g transform="translate(84.704912, 48.39291)"><g><path d="M 20.46875 0 L 16.984375 0 L 16.984375 -15.203125 L 6.8125 -15.203125 L 6.8125 0 L 3.3125 0 L 3.3125 -32.109375 L 6.8125 -32.109375 L 6.8125 -18.390625 L 16.984375 -18.390625 L 16.984375 -32.109375 L 20.46875 -32.109375 Z M 20.46875 0 "/></g></g></g><g fill="#113c60" fill-opacity="1"><g transform="translate(109.479627, 48.39291)"><g><path d="M 1.34375 0 L 1.34375 -2.90625 L 8.78125 -16.734375 L 1.671875 -29.296875 L 1.671875 -32.109375 L 16.0625 -32.109375 L 16.0625 -29 L 8.703125 -29 C 8.316406 -29 7.941406 -29 7.578125 -29 C 7.222656 -29.007812 6.882812 -29.023438 6.5625 -29.046875 C 6.238281 -29.066406 5.914062 -29.09375 5.59375 -29.125 L 12.65625 -16.734375 L 5.15625 -2.984375 C 5.695312 -3.046875 6.234375 -3.09375 6.765625 -3.125 C 7.296875 -3.164062 7.835938 -3.1875 8.390625 -3.1875 L 16.796875 -3.1875 L 16.796875 0 Z M 1.34375 0 "/></g></g></g><g fill="#113c60" fill-opacity="1"><g transform="translate(128.412614, 48.39291)"><g><path d="M 20.46875 0 L 16.984375 0 L 16.984375 -15.203125 L 6.8125 -15.203125 L 6.8125 0 L 3.3125 0 L 3.3125 -32.109375 L 6.8125 -32.109375 L 6.8125 -18.390625 L 16.984375 -18.390625 L 16.984375 -32.109375 L 20.46875 -32.109375 Z M 20.46875 0 "/></g></g></g></g></g></svg>