<svg xmlns="http://www.w3.org/2000/svg" xmlns:xlink="http://www.w3.org/1999/xlink" zoomAndPan="magnify" preserveAspectRatio="xMidYMid meet" version="1.0" viewBox="496.43 298.82 254.17 49.26"><defs><filter x="0%" y="0%" width="100%" height="100%" id="507c795a98"><feColorMatrix values="0 0 0 0 1 0 0 0 0 1 0 0 0 0 1 0 0 0 1 0" color-interpolation-filters="sRGB"/></filter><clipPath id="ffba1f4c1a"><path d="M 0.597656 0.550781 L 254.53125 0.550781 L 254.53125 49.945312 L 0.597656 49.945312 Z M 0.597656 0.550781 " clip-rule="nonzero"/></clipPath><mask id="85c5743219"><g filter="url(#507c795a98)"><rect x="-681.295" width="1212.84" fill="#000000" y="-429.009997" height="857.51998" fill-opacity="0.35"/></g></mask><clipPath id="8fda3448e0"><path d="M 5 6 L 254.488281 6 L 254.488281 49.945312 L 5 49.945312 Z M 5 6 " clip-rule="nonzero"/></clipPath><clipPath id="7ee13a6dd0"><path d="M 2 2 L 254.488281 2 L 254.488281 49.945312 L 2 49.945312 Z M 2 2 " clip-rule="nonzero"/></clipPath><clipPath id="57a3117c2a"><path d="M 0.597656 1.320312 L 250 1.320312 L 250 45 L 0.597656 45 Z M 0.597656 1.320312 " clip-rule="nonzero"/></clipPath><clipPath id="584d9c85f4"><path d="M 0.597656 1.320312 L 253 1.320312 L 253 48 L 0.597656 48 Z M 0.597656 1.320312 " clip-rule="nonzero"/></clipPath><clipPath id="26d53e3593"><path d="M 192 1.320312 L 194 1.320312 L 194 45 L 192 45 Z M 192 1.320312 " clip-rule="nonzero"/></clipPath><clipPath id="d2598d2761"><rect x="0" width="255" y="0" height="50"/></clipPath><clipPath id="5aa9644852"><rect x="0" width="255" y="0" height="50"/></clipPath></defs><g transform="matrix(1, 0, 0, 1, 496, 298)"><g clip-path="url(#5aa9644852)"><g clip-path="url(#ffba1f4c1a)"><g mask="url(#85c5743219)"><g><g clip-path="url(#d2598d2761)"><g clip-path="url(#8fda3448e0)"><path fill="#9bbbe2" d="M 19.402344 6.007812 L 240.578125 6.007812 C 241.46875 6.007812 242.34375 6.097656 243.214844 6.269531 C 244.085938 6.441406 244.929688 6.699219 245.75 7.039062 C 246.570312 7.378906 247.347656 7.792969 248.085938 8.285156 C 248.824219 8.78125 249.507812 9.339844 250.136719 9.96875 C 250.761719 10.59375 251.324219 11.277344 251.816406 12.015625 C 252.308594 12.753906 252.726562 13.53125 253.0625 14.351562 C 253.402344 15.171875 253.660156 16.015625 253.832031 16.886719 C 254.007812 17.757812 254.09375 18.636719 254.09375 19.523438 L 254.09375 36.070312 C 254.09375 36.957031 254.007812 37.835938 253.832031 38.707031 C 253.660156 39.574219 253.402344 40.421875 253.0625 41.242188 C 252.726562 42.058594 252.308594 42.839844 251.816406 43.578125 C 251.324219 44.316406 250.761719 44.996094 250.136719 45.625 C 249.507812 46.253906 248.824219 46.8125 248.085938 47.304688 C 247.347656 47.796875 246.570312 48.214844 245.75 48.554688 C 244.929688 48.894531 244.085938 49.148438 243.214844 49.324219 C 242.34375 49.496094 241.46875 49.582031 240.578125 49.582031 L 19.402344 49.582031 C 18.515625 49.582031 17.636719 49.496094 16.765625 49.324219 C 15.894531 49.148438 15.050781 48.894531 14.230469 48.554688 C 13.410156 48.214844 12.632812 47.796875 11.894531 47.304688 C 11.15625 46.8125 10.476562 46.253906 9.847656 45.625 C 9.21875 44.996094 8.660156 44.316406 8.167969 43.578125 C 7.671875 42.839844 7.257812 42.058594 6.917969 41.242188 C 6.578125 40.421875 6.320312 39.574219 6.148438 38.707031 C 5.976562 37.835938 5.890625 36.957031 5.890625 36.070312 L 5.890625 19.523438 C 5.890625 18.636719 5.976562 17.757812 6.148438 16.886719 C 6.320312 16.015625 6.578125 15.171875 6.917969 14.351562 C 7.257812 13.53125 7.671875 12.753906 8.167969 12.015625 C 8.660156 11.277344 9.21875 10.59375 9.847656 9.96875 C 10.476562 9.339844 11.15625 8.78125 11.894531 8.285156 C 12.632812 7.792969 13.410156 7.378906 14.230469 7.039062 C 15.050781 6.699219 15.894531 6.441406 16.765625 6.269531 C 17.636719 6.097656 18.515625 6.007812 19.402344 6.007812 Z M 19.402344 6.007812 " fill-opacity="1" fill-rule="nonzero"/></g><g clip-path="url(#7ee13a6dd0)"><path stroke-linecap="butt" transform="matrix(0.551563, 0, 0, 0.551563, 0.649465, 1.320935)" fill="none" stroke-linejoin="miter" d="M 33.999495 8.49744 L 434.997388 8.49744 C 436.612116 8.49744 438.198516 8.660329 439.777833 8.971944 C 441.357151 9.283558 442.886893 9.750979 444.374143 10.367125 C 445.861392 10.983271 447.270738 11.733978 448.609263 12.626328 C 449.947787 13.52576 451.187162 14.538506 452.327387 15.678731 C 453.460529 16.811873 454.480358 18.051248 455.372707 19.389773 C 456.265057 20.728297 457.022846 22.137643 457.63191 23.624893 C 458.248056 25.112142 458.715478 26.641885 459.027092 28.221202 C 459.345788 29.80052 459.501595 31.394001 459.501595 33.001647 L 459.501595 63.001596 C 459.501595 64.609242 459.345788 66.202723 459.027092 67.782041 C 458.715478 69.354276 458.248056 70.8911 457.63191 72.37835 C 457.022846 73.858517 456.265057 75.274946 455.372707 76.61347 C 454.480358 77.951995 453.460529 79.184287 452.327387 80.324512 C 451.187162 81.464737 449.947787 82.477483 448.609263 83.369832 C 447.270738 84.262182 445.861392 85.019971 444.374143 85.636118 C 442.886893 86.252264 441.357151 86.712603 439.777833 87.031299 C 438.198516 87.342913 436.612116 87.498721 434.997388 87.498721 L 33.999495 87.498721 C 32.391849 87.498721 30.798367 87.342913 29.21905 87.031299 C 27.639732 86.712603 26.10999 86.252264 24.62274 85.636118 C 23.135491 85.019971 21.726145 84.262182 20.38762 83.369832 C 19.049096 82.477483 17.816803 81.464737 16.676578 80.324512 C 15.536354 79.184287 14.523608 77.951995 13.631258 76.61347 C 12.731826 75.274946 11.981119 73.858517 11.364973 72.37835 C 10.748827 70.8911 10.281405 69.354276 9.969791 67.782041 C 9.658177 66.202723 9.50237 64.609242 9.50237 63.001596 L 9.50237 33.001647 C 9.50237 31.394001 9.658177 29.80052 9.969791 28.221202 C 10.281405 26.641885 10.748827 25.112142 11.364973 23.624893 C 11.981119 22.137643 12.731826 20.728297 13.631258 19.389773 C 14.523608 18.051248 15.536354 16.811873 16.676578 15.678731 C 17.816803 14.538506 19.049096 13.52576 20.38762 12.626328 C 21.726145 11.733978 23.135491 10.983271 24.62274 10.367125 C 26.10999 9.750979 27.639732 9.283558 29.21905 8.971944 C 30.798367 8.660329 32.391849 8.49744 33.999495 8.49744 Z M 33.999495 8.49744 " stroke="#000000" stroke-width="1" stroke-opacity="1" stroke-miterlimit="4"/></g><g clip-path="url(#57a3117c2a)"><path fill="#ffffff" d="M 14.4375 1.597656 L 235.617188 1.597656 C 236.503906 1.597656 237.382812 1.683594 238.25 1.855469 C 239.121094 2.03125 239.96875 2.285156 240.785156 2.625 C 241.605469 2.964844 242.386719 3.382812 243.125 3.875 C 243.859375 4.367188 244.542969 4.925781 245.171875 5.554688 C 245.796875 6.183594 246.359375 6.863281 246.851562 7.601562 C 247.34375 8.339844 247.761719 9.117188 248.101562 9.9375 C 248.441406 10.757812 248.695312 11.601562 248.867188 12.472656 C 249.042969 13.34375 249.128906 14.222656 249.128906 15.109375 L 249.128906 30.554688 C 249.128906 31.441406 249.042969 32.320312 248.867188 33.191406 C 248.695312 34.058594 248.441406 34.90625 248.101562 35.726562 C 247.761719 36.542969 247.34375 37.324219 246.851562 38.0625 C 246.359375 38.800781 245.796875 39.480469 245.171875 40.109375 C 244.542969 40.738281 243.859375 41.296875 243.125 41.789062 C 242.386719 42.28125 241.605469 42.699219 240.785156 43.039062 C 239.96875 43.378906 239.121094 43.632812 238.25 43.808594 C 237.382812 43.980469 236.503906 44.066406 235.617188 44.066406 L 14.4375 44.066406 C 13.550781 44.066406 12.671875 43.980469 11.800781 43.808594 C 10.933594 43.632812 10.085938 43.378906 9.265625 43.039062 C 8.449219 42.699219 7.667969 42.28125 6.929688 41.789062 C 6.191406 41.296875 5.511719 40.738281 4.882812 40.109375 C 4.253906 39.480469 3.695312 38.800781 3.203125 38.0625 C 2.710938 37.324219 2.292969 36.542969 1.953125 35.726562 C 1.613281 34.90625 1.359375 34.058594 1.183594 33.191406 C 1.011719 32.320312 0.925781 31.441406 0.925781 30.554688 L 0.925781 15.109375 C 0.925781 14.222656 1.011719 13.34375 1.183594 12.472656 C 1.359375 11.601562 1.613281 10.757812 1.953125 9.9375 C 2.292969 9.117188 2.710938 8.339844 3.203125 7.601562 C 3.695312 6.863281 4.253906 6.183594 4.882812 5.554688 C 5.511719 4.925781 6.191406 4.367188 6.929688 3.875 C 7.667969 3.382812 8.449219 2.964844 9.265625 2.625 C 10.085938 2.285156 10.933594 2.03125 11.800781 1.855469 C 12.671875 1.683594 13.550781 1.597656 14.4375 1.597656 Z M 14.4375 1.597656 " fill-opacity="1" fill-rule="nonzero"/></g><g clip-path="url(#584d9c85f4)"><path stroke-linecap="butt" transform="matrix(0.551563, 0, 0, 0.551563, 0.649465, 1.320935)" fill="none" stroke-linejoin="miter" d="M 24.998094 0.501703 L 426.003069 0.501703 C 427.610715 0.501703 429.204197 0.65751 430.776432 0.969124 C 432.35575 1.287821 433.892574 1.74816 435.372742 2.364306 C 436.859991 2.980452 438.276419 3.738241 439.614944 4.630591 C 440.946386 5.522941 442.185761 6.535687 443.325986 7.675912 C 444.459128 8.816136 445.478957 10.048429 446.371306 11.386954 C 447.263656 12.725478 448.021445 14.134824 448.637591 15.622074 C 449.253738 17.109323 449.714077 18.639066 450.025691 20.218383 C 450.344387 21.7977 450.500194 23.391182 450.500194 24.998828 L 450.500194 53.001613 C 450.500194 54.609259 450.344387 56.20274 450.025691 57.782058 C 449.714077 59.354293 449.253738 60.891118 448.637591 62.378367 C 448.021445 63.858535 447.263656 65.274963 446.371306 66.613487 C 445.478957 67.952012 444.459128 69.184304 443.325986 70.324529 C 442.185761 71.464754 440.946386 72.4775 439.614944 73.36985 C 438.276419 74.262199 436.859991 75.019988 435.372742 75.636135 C 433.892574 76.252281 432.35575 76.71262 430.776432 77.031316 C 429.204197 77.342931 427.610715 77.498738 426.003069 77.498738 L 24.998094 77.498738 C 23.390448 77.498738 21.796966 77.342931 20.217649 77.031316 C 18.645414 76.71262 17.108589 76.252281 15.621339 75.636135 C 14.141172 75.019988 12.724744 74.262199 11.386219 73.36985 C 10.047695 72.4775 8.815402 71.464754 7.675177 70.324529 C 6.534953 69.184304 5.522207 67.952012 4.629857 66.613487 C 3.737507 65.274963 2.979718 63.858535 2.363572 62.378367 C 1.747426 60.891118 1.287086 59.354293 0.96839 57.782058 C 0.656776 56.20274 0.500969 54.609259 0.500969 53.001613 L 0.500969 24.998828 C 0.500969 23.391182 0.656776 21.7977 0.96839 20.218383 C 1.287086 18.639066 1.747426 17.109323 2.363572 15.622074 C 2.979718 14.134824 3.737507 12.725478 4.629857 11.386954 C 5.522207 10.048429 6.534953 8.816136 7.675177 7.675912 C 8.815402 6.535687 10.047695 5.522941 11.386219 4.630591 C 12.724744 3.738241 14.141172 2.980452 15.621339 2.364306 C 17.108589 1.74816 18.645414 1.287821 20.217649 0.969124 C 21.796966 0.65751 23.390448 0.501703 24.998094 0.501703 Z M 24.998094 0.501703 " stroke="#000000" stroke-width="1" stroke-opacity="1" stroke-miterlimit="4"/></g><g clip-path="url(#26d53e3593)"><path stroke-linecap="butt" transform="matrix(0.551563, 0, 0, 0.551563, 0.649465, 1.320935)" fill="none" stroke-linejoin="miter" d="M 348.503203 -0.00112887 L 348.503203 78.00157 " stroke="#000000" stroke-width="1" stroke-opacity="1" stroke-miterlimit="4"/></g><path stroke-linecap="butt" transform="matrix(0.435602, -0.338339, 0.338339, 0.435602, 33.282436, 141.2568)" fill-opacity="1" fill="#ffffff" fill-rule="nonzero" stroke-linejoin="miter" d="M 401.20357 40.545244 C 401.617251 40.543727 401.968917 40.691327 402.262912 40.982449 C 402.556906 41.273571 402.70249 41.628769 402.704006 42.042451 L 402.699049 72.043756 C 402.700566 72.457437 402.552967 72.809103 402.261844 73.103098 C 401.970722 73.397092 401.615524 73.542676 401.201842 73.544192 C 400.788161 73.545709 400.436495 73.398109 400.136907 73.102643 C 399.847257 72.805928 399.702922 72.460667 399.70575 72.041392 L 399.70077 42.041336 C 399.699253 41.627655 399.846852 41.275989 400.137975 40.981994 C 400.43469 40.692344 400.784295 40.542416 401.20357 40.545244 Z M 401.20357 40.545244 " stroke="#000000" stroke-width="1" stroke-opacity="1" stroke-miterlimit="4"/><path stroke-linecap="butt" transform="matrix(0.551563, 0, 0, 0.551563, 0.649465, 1.320935)" fill-opacity="1" fill="#ffffff" fill-rule="nonzero" stroke-linejoin="miter" d="M 408.5031 30.997401 C 408.5031 32.01723 408.40395 33.022894 408.20565 34.021475 C 408.000268 35.020057 407.7099 35.990311 407.320382 36.932235 C 406.930864 37.87416 406.456361 38.76651 405.88979 39.609285 C 405.323218 40.459141 404.678744 41.238177 403.963447 41.960555 C 403.241069 42.682934 402.454951 43.320326 401.612177 43.886898 C 400.76232 44.453469 399.86997 44.927972 398.928045 45.31749 C 397.993203 45.707008 397.022949 46.004458 396.024367 46.202758 C 395.025786 46.401058 394.020122 46.500208 393.000293 46.500208 C 391.980465 46.500208 390.974801 46.401058 389.976219 46.202758 C 388.977637 46.004458 388.007384 45.707008 387.065459 45.31749 C 386.130617 44.927972 385.238267 44.453469 384.38841 43.886898 C 383.545635 43.320326 382.759518 42.682934 382.037139 41.960555 C 381.321843 41.238177 380.677368 40.459141 380.110797 39.609285 C 379.544226 38.76651 379.069722 37.87416 378.680205 36.932235 C 378.290687 35.990311 377.993237 35.020057 377.794937 34.021475 C 377.596637 33.022894 377.497487 32.01723 377.497487 30.997401 C 377.497487 29.984655 377.596637 28.971909 377.794937 27.973327 C 377.993237 26.974745 378.290687 26.011574 378.680205 25.06965 C 379.069722 24.127725 379.544226 23.235375 380.110797 22.385518 C 380.677368 21.542743 381.321843 20.756626 382.037139 20.04133 C 382.759518 19.318951 383.545635 18.674476 384.38841 18.114987 C 385.238267 17.548416 386.130617 17.06683 387.065459 16.677313 C 388.007384 16.287795 388.977637 15.997427 389.976219 15.799127 C 390.974801 15.600827 391.980465 15.501677 393.000293 15.501677 C 394.020122 15.501677 395.025786 15.600827 396.024367 15.799127 C 397.022949 15.997427 397.993203 16.287795 398.928045 16.677313 C 399.86997 17.06683 400.76232 17.548416 401.612177 18.114987 C 402.454951 18.674476 403.241069 19.318951 403.963447 20.04133 C 404.678744 20.756626 405.323218 21.542743 405.88979 22.385518 C 406.456361 23.235375 406.930864 24.127725 407.320382 25.06965 C 407.7099 26.011574 408.000268 26.974745 408.20565 27.973327 C 408.40395 28.971909 408.5031 29.984655 408.5031 30.997401 Z M 408.5031 30.997401 " stroke="#000000" stroke-width="1" stroke-opacity="1" stroke-miterlimit="4"/></g></g></g></g></g></g></svg>